Love for All and Sharing is the first step to solving all the problems of humanity.

Websites I want to share.

    
http://www.shareintl.org/

    
http://www.lightmiddleway.com


Thank you very much

No credit for me...credit to EVERYONE for sharing
 
http://thepiratebay.org/user/raymondhome/

PLOT
Shinichi runs away from his problems and the people he fears. When Shinichi prays to the great Kawakami oak tree for courage, he is plunged into ancient feudal Japan. He awakens in the province of Kasuga, in the midst of a battle. It is there he meets the great warrior samurai, called the Demon Ijiri. Ijiri is a worthy adversary in battle, but he proves to be a less successful lover. He has been in love with Princess Ren since his youth. She has fiercely loved him in return, rebuking offers of marriage in the hopes of marrying for love. When the powerful Lord Takatura asks for her hand in marriage, she dares not refuse him for the safety of her kingdom. When Shinichi’s family emerges from the future to search for him, they bring stirring news to the town elders. The Kasuga province had never been recorded in history, and their enduring battles with other clans were seemingly fruitless. In light of this news, Princess Ren is relinquished of her duty to marry the formidable Lord Takatura. Ijiri is overjoyed, as is the Princess Ren. Yet Lord Takatura is unaccustomed to rejection, and his rage results in a fearsome battle.

Language:Japanese
Subtitles: ROMANA/English.HardSub
Encoder: Tony2

Duration : 1h 13mn
Overall bit rate : 1 335 Kbps

Video
Format : xvid
Codec ID : xvid
Duration : 1h 13mn
Bit rate : 1 194 Kbps
Width : 720 pixels
Height : 304 pixels
Display aspect ratio : 2.35:1
Frame rate : 23.976 fps
Resolution : 24 bits
Bits/(Pixel*Frame) : 0.228
Stream size : 627 MiB (89%)

Audio
ID : 1
Format : MPEG Audio
Format version : Version 1
Format profile : Layer 3
Format settings, Mode : Joint stereo / MS Stereo
Codec ID : 55
Codec ID/Hint : MP3
Duration : 1h 13mn
Bit rate mode : Constant
Bit rate : 128 Kbps
Channel(s) : 2 channels
Sampling rate : 48.0 KHz
Resolution : 16 bits
Stream size : 67.3 MiB (10%)
Alignment : Aligned on interleaves
Interleave, duration : 24 ms (0.58 video frame)
Interleave, preload duration : 24 ms
Writing library : LAME3.97

credit FEEL-FREE & pitic BIG BIG BIG TIME & to all the people who made it possible for us to share this...especially EVERYONE involve in the production of the movie...IF YOU LIKE IT...BUY IT :)

*****help what we can with others in need...the world is ONE big family*****